# xmcd
#
# Track frame offsets:
#	150
#	16425
#	28950
#	43350
#	54000
#	68025
#	81150
#	90825
#	102675
#	113100
#	126375
#	141900
#	155775
#	170025
#	182625
#
# Disc length: 2630
#
# Revision: 2
# Processed by: cddbd v1.5.2PL0 Copyright (c) Steve Scherf et al.
# Submitted via: kJams Pro (development) 1.0patch46.48
#
DISCID=d40a440f
DTITLE=Various Artist - DK 3043
DYEAR=1980
DGENRE=Country
TTITLE0=Glen Campbell - Rhinestone Cowboy
TTITLE1=Glen Campbell - Wichita Lineman
TTITLE2=Glen Campbell - Gentle On My Mind
TTITLE3=Glen Campbell - Galveston
TTITLE4=Ray Price - Heartaches By The Number
TTITLE5=Roy Acuff - Wabash Cannonball
TTITLE6=Buck Owens - I've Got A Tiger By The Tail
TTITLE7=Jim Reeves - Welcome To My World
TTITLE8=The Sons Of The Pioneer - Cool Water
TTITLE9=Bobby Bare - Detroit City
TTITLE10=Bob Willis - San Antonio Rose
TTITLE11=Bill Anderson - Still
TTITLE12=Johnny Ray - Cry
TTITLE13=Johnny Preston - Running Bear
TTITLE14=Lefty Frizzel - Long Black Veil
EXTD=
EXTT0=
EXTT1=
EXTT2=
EXTT3=
EXTT4=
EXTT5=
EXTT6=
EXTT7=
EXTT8=
EXTT9=
EXTT10=
EXTT11=
EXTT12=
EXTT13=
EXTT14=
PLAYORDER=
